<?xml version="1.0" encoding="utf-8"?><!DOCTYPE svg PUBLIC "-//W3C//DTD SVG 1.1//EN" "http://www.w3.org/Graphics/SVG/1.1/DTD/svg11.dtd"><svg xmlns="http://www.w3.org/2000/svg" xmlns:xlink="http://www.w3.org/1999/xlink"><symbol viewBox="0 0 88 75.534" id="natural" xmlns="http://www.w3.org/2000/svg"><g fill-rule="evenodd" clip-rule="evenodd" fill="#8BC03F"><path d="M60.186 71.927c.563-.721.885-1.131 1.098-1.406l-1.289-.968c-.396.05-.779.082-1.14.084.413.722.864 1.463 1.331 2.29zM62.062 62.701c.064-1.222.088-1.902-.103-2.563-.174.991-.38 1.984-.623 2.978l.726-.415zM60.633 65.674c.236-.055.478-.119.723-.19.219-.484.399-.997.523-1.504l-.808.162a41.355 41.355 0 01-.438 1.532zM30.251 21.718c-1.13-.374-2.285-.536-1.997 1.188.113.671.093 1.214-.042 1.666.86.669 1.703 1.351 2.523 2.049l.539-1.414c-.926-.201-.926-.201-1.023-3.489zM46.722 57.51c.316.802.599 1.633.848 2.51l.729-.74a76.643 76.643 0 00-1.21-3.302c-.134.516-.273 1.024-.367 1.532zM46.018 53.559l.055-.032a72.704 72.704 0 00-.819-1.816c-.859-.115-1.47-.034-1.939.272a15.412 15.412 0 012.122 2.846l1.279.257-.698-1.527zM54.877 60.763c-.361.544-.419 1.466-.26 2.489.196-.561.383-1.122.549-1.687l-.289-.802zM57.355 34.918c.16-.176-.248-1.234-.366-1.229-.409.019-.821.074-1.264.147.297.574.58 1.157.849 1.751a4.8 4.8 0 00.781-.669zM56.383 27.417c-2.072-.232-3.146.472-3.324 2.025.167.234.345.459.505.698 1.655-.003 1.608-1.982 2.819-2.723zM39.946 22.541l-2.652 3.452.162.385 4.031-2.132c-1.844.587-1.092-1.506-1.541-1.705zM25.672 36.9l3.65-1.202c-.286-.201-.568-.403-.869-.598l-3.085.892.304.908zM48.766 66.548l.005.037c.024-.014.048-.022.072-.037h-.077zM37.04 56.83l.37-.41-2.923-2.69c-.298 2.721 1.117 2.92 2.553 3.1zM15.944 40.544l.081-.75c-1.227-.077-2.453-.156-3.68-.234.027.032.051.065.078.098.219.252.339.503.419.669l.069.141.093.173c.957.168 1.957-.031 2.94-.097zM2.257 33.967c1.041.135 1.469-.29 1.721-.868a39.572 39.572 0 01-.672-1.633l-1.049 2.501zM24.673 65.312l.499.736c.434.263.873.517 1.318.76l-1.287-1.921-.53.425zM80.3 60.058l.782 2.887.549-.14c.468-1.136.166-2.088-1.331-2.747zM37.087 7.978l-2.905-3.343-.435.414 3.018 3.25.322-.321zM50.697 16.99l-1.316 1.937 3.128-.284-1.812-1.653z"/><path d="M79.84 32.935l-.088-.848-.308.163-.046-.109.316-.411-.222-2.128-2.077 1.608c.021.65.049.66.28.709l-.394 1.034-.192-.313c-.324-.146-.646-.292-.971-.437-3.011 2.498-6.284 4.113-10.007 4.937-1.649.364-3.237.899-4.773 1.417-.63.212-1.26.425-1.891.625a2.785 2.785 0 00-1.208.764 39.715 39.715 0 00-1.688-4.359c-.365.261-.765.512-1.174.805l-1.41-2.246c.661-.114 1.22-.224 1.735-.31a36.412 36.412 0 00-2.161-3.695c-.161 0-.335-.012-.532-.052a4.617 4.617 0 01.027-.646 35.971 35.971 0 00-6.882-7.298 37.87 37.87 0 00-4.399-3.019c.112.933.038 1.841-.325 2.249-.145.164-.428.293-.639.282-.171-.008-.414-.219-.481-.394-.42-1.089-.799-2.192-1.095-3.02v-.493c-2.992-1.48-6.258-2.643-9.872-3.491-3.058-.717-6.195-1.466-9.224-2.393l.03.066-2.205-.442c.037-.109.075-.2.113-.293-5.626-1.983-10.393-5.58-13.931-8.524a13.704 13.704 0 00-.574-.442L.621 0l-.29 3.365A93.108 93.108 0 000 10.02c1.124 2.063 1.778 4.115 1.494 6.434-.042.35-.576.774-.965.893-.069.021-.176-.028-.29-.1.187 2.211.47 4.352.867 6.424.536 2.792 1.271 5.38 2.199 7.795l.454-1.082c.268.294.915.854.849.956-.309.481-.385 1.194-.63 1.759a35.652 35.652 0 003.268 5.938l-2.624-.282-.95-.03-1.697 1.712.518 1.159c.272.608.533 1.224.793 1.838.585 1.381 1.191 2.81 1.929 4.187 1.519 2.834 3.524 5.337 6.059 7.547v2.021l-.031.685.349.52c.107.16.216.315.329.465 5.421 7.265 12.483 12.168 20.99 14.573 5.047 1.427 10.262 1.855 14.696 2.087.188.01.37.015.552.015 3.209 0 5.639-1.529 7.024-4.423.21-.439.424-.876.638-1.314.075-.15.147-.309.223-.461l1.738.236c.327.045.676.067 1.036.067l.038-.002a18.707 18.707 0 01-.915-1.769c-.443-1.009.69-2.741 1.841-3.111 1.24-.398 1.704-1.833 1.263-3.123-.512-1.489-.785-3.063-.938-4.648 1.111 1.613 1.631 2.373 1.854 3.151.564-3.219.766-6.422.595-9.58-.01-.18-.03-.356-.042-.534h1.669c-.034-.333-.071-.588-.087-.846a71.34 71.34 0 01-.08-1.662c-.008-.178-.061-.396.02-.527.452-.729 1.149-.927 2.077-.517.08-.293.278-.61.201-.83-.097-.276-.402-.494-.649-.697-.172-.142-.397-.214-.6-.317l-.084.183.641.779c-.563.694-1.498-.47-1.761.569-.143.568-1.093.918-.26 1.803-.438-.168-.647-.25-.858-.332l-.102.206c.257.112.521.209.765.345a.783.783 0 01.322.323c.027.057-.113.193-.176.293-.063.101-.189.21-.174.295.075.463-.186.543-.555.574-.111.01-.223.032-.333.055-.16-2.043-.474-4.065-.788-6.026-.066-.414-.132-.828-.198-1.252.35-.115.699-.232 1.048-.351 1.179-.397 2.307-.774 3.438-1.074-.021-.329.344-.541.417-.831.186-.736.85.087 1.247-.404l-.454-.552.061-.13c.142.074.303.125.424.225.176.144.393.299.461.494.055.155-.086.382-.143.589-.657-.291-1.152-.151-1.473.367-.018.029-.016.072-.019.112.143-.035.285-.074.429-.106a26.948 26.948 0 009.382-4.051c.004 1.55-.104 3.07-.322 4.582a.932.932 0 00.2-.299c.1-.223.195-.449.259-.683.114-.418.329-.434.682-.191-.572.439-.904.891-.65 1.594.105.292-.201.526-.523.429l-.103-.033c-.034.193-.061.389-.098.583-.604 3.162-1.813 5.725-3.805 8.062l-3.013 3.539 5.079-.522c-1.144 2.062-2.878 3.721-5.313 5.111l-6.654 3.8-.009.175a6.026 6.026 0 01-.174 1.104l4.812-.966c-1.665 1.051-3.6 1.962-5.335 2.47-.55 1.222-1.331 2.248-1.999 2.431l-.662.661 1.3.978c4.924-.614 12.368-4.763 14.081-8.858l.752-1.797c1.852-1.901 3.135-4.144 3.883-6.771l.756-2.651-2.259.236c.131-.241.243-.492.365-.739.359-.008.637-.289.512-.631a2.32 2.32 0 01-.076-.284c.233-.539.442-1.092.632-1.656a5.2 5.2 0 01.362-.308 1.603 1.603 0 00-.226-.134c.256-.822.483-1.665.652-2.548.655-3.426.79-6.852.412-10.479zM1.508 5.024l-.019-.255c.42-.008.86-.085 1.25.019.109.029.073.597.125 1.133l-1.356-.897zm18.913 7.027c1.369.656 1.894 1.833 2.167 3.222-.546-.511-1.092-1.021-1.575-1.475l-.609.617c-.1-.32-.292-.644-.277-.958.021-.468.187-.928.294-1.406zm-5.979-.755l1.37 1.261-.174.192c-.672-.084-1.335-.178-1.196-1.453zM3.899 4.647l1.893.121-.038.351c-.641.043-1.296.212-1.89-.14.013-.11.024-.221.035-.332zm2.943 35.15c.897-.019 1.834-.184 2.667.04.232.062.157 1.272.266 2.419l-2.893-1.915a86.696 86.696 0 01-.04-.544zm36.499 32.297c-.9-.438-1.548-.719-2.159-1.066-.269-.154-.659-.463-.64-.667.027-.283.502-.796.589-.759.761.329 1.537.689 2.177 1.204.21.17.033.819.033 1.288zm6.979-5.957c.225.905.423 1.816.62 2.726-.624.156-1.261.295-1.86.357l-.281-2.413c-.007-.074-.019-.147-.027-.222-2.458 1.388-4.278 1.401-5.382-.037h5.377c-.076-.69-.151-1.374-.254-2.051a35.836 35.836 0 00-.942-4.478l-.359.363c-.213-.683-.62-1.373-.591-2.045.013-.276.053-.553.103-.828a25.67 25.67 0 00-.478-1.138 17.445 17.445 0 00-.809-1.544l-3.426-.686c.366-1.088.735-1.786 1.304-2.16a14.734 14.734 0 00-3.261-2.595l2.348.119-.942-2.632c-.168-.47-.321-.926-.471-1.369-.339-1.009-.659-1.961-1.087-2.914-.13-.29-.266-.578-.407-.861a66.878 66.878 0 012.061 3.133 68.168 68.168 0 013.698 6.847c.726.098 1.625.331 2.78.692l-1.961 1.124c.352.807.69 1.624 1.017 2.451.056-.212.11-.425.16-.64 2.92 1.399 4.039 3.911 4.622 6.877-1.164-1.091-2.33-2.181-3.36-3.148l-.212.213a84.433 84.433 0 012.02 6.859zm4.298-2.885c-.09.256-.178.512-.274.767-.137.364-.283.725-.438 1.085a86.745 86.745 0 00-2.573-8.459l.176-.178c.251.236.537.502.821.77-.143-.725-.416-1.339-1.131-1.681-.033.145-.071.286-.104.429-.065-.178-.139-.35-.206-.526l.181.036a31.143 31.143 0 01-.172-.374l.493-.283c-.359-.111-.616-.173-.813-.178-1.633-4.161-3.566-8.063-5.85-11.756a68.511 68.511 0 00-13.991-16.282l-.854 2.243-.683-1.107-3.432-1.547c1.387-.209 2.173-.718 2.446-1.638-3.796-2.951-7.981-5.622-12.593-8.028a5.775 5.775 0 00-.626-.268l-1.654-.616-1.713 2.83 9.454 8.005-4.157-.129-1.33.084-1.286 3.046 2.07.677c.185.064.371.125.565.173 3.678.888 6.824 2.069 9.617 3.613.663.366 1.291.749 1.895 1.141l1.854-.536.243.73-1.228.404c3.32 2.337 5.692 5.106 7.179 8.42.197.438.375.901.546 1.384l-7.905-.398c.043-.513-.135-1.246-.394-1.486-.177-.166-.271-.445-.346-.69-.052-.172-.01-.374-.01-.563a8.412 8.412 0 01-.275.007v1.921l.277.773-12.147-.614-.265 3.832 1.735.229c.762.103 1.524.199 2.286.295 1.639.209 3.333.425 4.979.681l1.619.248c2.502.383 5.09.777 7.562 1.338 4.181.948 7.022 3.187 8.685 6.843.923 2.033 1.551 4.3 1.976 7.135.066.44.122.882.173 1.326l-13.27 1.172 1.379 2.056a35.47 35.47 0 01-6.619-2.796l1.845 2.756-.537.36-2.626-3.876a35.142 35.142 0 01-7.333-5.93l2.354.505.595-1.142a3.493 3.493 0 00-.517-.097c.062-.575-.021-1.23.237-1.698.12-.219.467-.315.847-.424l-1.198-.618c-5.471-2.83-9.283-6.357-11.657-10.788-.53-.989-.988-2.018-1.448-3.094l7.521.81-1.568-2.936a3.188 3.188 0 01-1.093-.396c.025-.235.049-.472.075-.707.12.008.239.016.359.022-3.807-4.445-6.288-9.872-7.578-16.591-.923-4.81-1.239-9.997-.959-15.771 2.051 1.611 4.415 3.289 7.045 4.771.009-.032.023-.063.032-.095.188-.693.545-.719 1.128-.316-.28.215-.52.435-.716.664 1.858 1.019 3.843 1.936 5.958 2.649 3.703 1.248 7.544 2.148 11.276 3.023 6.061 1.422 11.071 3.765 15.316 7.162 5.587 4.471 9.409 10.399 11.357 17.621 1.755 6.502 1.737 12.844-.039 18.89l2.479 6.89c-1.487-.65-2.706-3.136-3.027-5.204zM38.974 48.039c-.259-.631-.506-1.268-.781-1.891-.29-.663-.605-1.314-.914-1.979 1.694-.294 2.277.825 1.695 3.87zM32.698 33.54a32.75 32.75 0 00-4.336-2.843 33.486 33.486 0 00-.976-.52l.469-1.11a66.352 66.352 0 014.843 4.473zm47.177 4.833c-.073-.178-.145-.358-.221-.534-.083-.188-.172-.372-.259-.559.48-.084.643.233.48 1.093zm-9.073-2.176a8.727 8.727 0 00-.013-.154c.255-.005.52-.051.755.011.065.018.045.36.075.684-.385-.255-.602-.397-.817-.541zm2.562.058c-.386.026-.782.128-1.14-.085l.021-.2 1.143.073c-.01.071-.016.141-.024.212zm2.749-1.03c-.027-.085-.057-.171-.085-.256l1.396-.404.068.207-1.379.453zm2.492 4.758l.827.76-.104.115c-.406-.05-.806-.108-.723-.875z"/><path d="M76.857 31.644l-.253.196c-.178.136-.319.247-.464.364.44-.067.67-.236.717-.56zM67.182 31.077c.058.13.266.313.347.288.155-.047.367-.216.385-.355.141-1.152-.291-2.137-.953-3.172-.175.68-.719 1.133-.336 1.822.244.439.354.952.557 1.417zM86.157 46.514c-.092.406-.233.798-.25 1.195-.012.269.15.544.234.814L86.66 48 88 49.256c-.232-1.182-.678-2.184-1.843-2.742zM85.667 45.804l.803-.461c-1.665-.521-2.033-.399-2.401.694.585.116 1.166.233 1.877.376-.164-.356-.236-.51-.279-.609zM83.248 30.359c-.052-.172-.01-.374-.01-.563l-.275.007v1.92c.118.329.269.77.437 1.204.027.07.124.153.191.158a.37.37 0 00.256-.113c.307-.347.099-1.595-.253-1.922-.178-.166-.272-.446-.346-.691zM83.246 33.437l-1.059 1.376c.022.051.044.102.064.154l1.607-.851c-.734.234-.434-.6-.612-.679zM71.216 41.298c-.044-.457-.015-.94-.106-.966-.333-.088-.706-.022-1.064-.015l.017.217c.303.202.607.403 1.153.764zM82.182 42.06c.122.265.248.525.364.789.109.248.208.502.312.754.231-1.215-.001-1.66-.676-1.543zM82.086 47.108l.147-.163c-.348-.319-.695-.641-1.165-1.073-.118 1.085.446 1.165 1.018 1.236zM73.675 40.615l.033-.299-1.611-.103c-.009.093-.021.188-.029.282.504.3 1.062.157 1.607.12zM82.105 27.63l-1.157-1.333-.174.165 1.203 1.295c.044-.042.085-.085.128-.127zM31.062 60.278c-.012.268.151.544.234.815.168-.171.336-.341.519-.524l1.34 1.254c-.232-1.182-.679-2.183-1.843-2.741-.092.406-.233.798-.25 1.196zM30.821 58.372l.803-.461c-1.665-.522-2.033-.398-2.401.694l1.877.376-.279-.609zM28.013 56.17c.232-1.214 0-1.659-.676-1.543.124.265.249.525.365.789.109.251.207.503.311.754zM27.241 59.676c.049-.055.099-.108.147-.163-.348-.32-.696-.642-1.166-1.072-.118 1.084.447 1.164 1.019 1.235zM27.26 40.199l-1.158-1.334-.173.165c.401.433.802.863 1.204 1.295l.127-.126zM48.283 45.858c-.056.249-.142.489-.152.733-.008.164.093.333.144.5l.318-.322.821.771c-.142-.725-.416-1.339-1.131-1.682zM47.983 45.423l.492-.283c-1.021-.319-1.246-.244-1.472.426l1.15.231-.17-.374zM46.5 35.955c-.032-.105-.007-.229-.007-.345a9.646 9.646 0 00-.168.004v1.177c.072.201.164.472.268.737.017.043.075.094.117.097a.223.223 0 00.156-.069c.189-.213.062-.978-.154-1.179-.108-.101-.166-.272-.212-.422zM46.5 37.841l-.649.844.04.094.985-.521c-.452.143-.268-.367-.376-.417zM45.847 43.127c.075.163.152.322.224.483.066.153.127.309.19.463.143-.744-.001-1.018-.414-.946zM44.984 33.566l.738.794.078-.078-.71-.817-.106.101zM49.416 45.654c-.033-.105-.007-.229-.007-.347l-.168.005v1.177c.072.202.164.472.267.737.018.044.076.095.117.098a.227.227 0 00.157-.069c.189-.213.061-.978-.155-1.179-.109-.102-.166-.274-.211-.422zM49.414 47.54c-.234.304-.442.573-.648.843l.04.095.985-.521c-.452.142-.268-.369-.377-.417zM48.714 43.98l-.71-.817-.105.101.737.795.078-.079z"/></g></symbol><symbol viewBox="0 0 11 11" id="phone" xmlns="http://www.w3.org/2000/svg"><path fill="#E45028" d="M10.758 9.774c-.164.383-.602.633-.953.828-.461.25-.93.398-1.453.398-.727 0-1.383-.297-2.047-.539a7.313 7.313 0 01-1.367-.648c-1.328-.82-2.93-2.422-3.75-3.75A7.227 7.227 0 01.54 4.695C.297 4.031 0 3.375 0 2.648c0-.523.148-.992.398-1.453.196-.352.446-.789.829-.953C1.485.125 2.032 0 2.313 0c.055 0 .109 0 .164.023.164.055.336.438.414.594.25.445.492.898.75 1.336.125.203.359.453.359.695 0 .477-1.414 1.172-1.414 1.594 0 .211.195.484.305.672.789 1.422 1.774 2.407 3.195 3.196.188.109.461.305.672.305C7.18 8.415 7.875 7 8.352 7c.242 0 .492.235.695.36.438.258.891.5 1.336.75.156.078.539.25.594.414.023.055.023.109.023.164 0 .281-.125.828-.242 1.086z"/></symbol><symbol id="play" viewBox="0 0 300 300" xml:space="preserve" xmlns="http://www.w3.org/2000/svg"><style>.cst0{fill:#626262}</style><path class="cst0" d="M196.1 139.6l-91-72.5c-8.7-6.9-21.5-.7-21.5 10.4v145c0 11.1 12.8 17.3 21.5 10.4l91-72.5c6.7-5.3 6.7-15.5 0-20.8z"/></symbol><symbol viewBox="0 0 38 38.638" id="salad" xmlns="http://www.w3.org/2000/svg"><g fill-rule="evenodd" clip-rule="evenodd" fill="#8BC03F"><path d="M11.954 35.416l-.292-.355.039-.084c.092.048.195.081.273.146.113.093.252.192.296.317.035.102-.055.246-.092.379-.422-.187-.742-.097-.947.236-.037.06-.013.16-.009.24.01.253.021.506.036.759.007.117.024.233.04.386h-.976l-.018-.092c.124-.025.248-.061.373-.071.168-.015.288-.052.252-.263-.006-.039.051-.089.08-.134.029-.046.093-.108.081-.134a.367.367 0 00-.147-.148c-.111-.061-.231-.105-.349-.156l.046-.094.392.15c-.38-.403.054-.563.12-.822.119-.474.545.056.802-.26zM18.06 35.646c-.368.283-.582.573-.418 1.026.068.188-.129.338-.336.275-.111-.034-.22-.073-.381-.128l.128.403c-.087-.053-.143-.067-.147-.093-.056-.281-.15-.523-.489-.557.012-.104-.003-.224.043-.309.032-.059.15-.068.25-.107l.121.137c.243.274.477.244.625-.086a3.07 3.07 0 00.167-.439c.071-.268.21-.278.437-.122zM18.232 29.722c.017.598.017.598.186.635l-.253.665a21.846 21.846 0 01-.124-.201l-.625-.282c.376-.056.514-.229.453-.6-.053-.314.157-.285.363-.217zM14.507 33.458c-.249-.164-.387-.257-.526-.349l-.007-.099c.163-.004.334-.033.485.007.041.012.028.233.048.441zM17.343 32.319l.899-.26.044.133-.888.292a15.943 15.943 0 00-.055-.165zM14.909 32.964l.735.046-.015.136c-.249.018-.503.084-.734-.054l.014-.128zM13.139 31.951l.273-.652c.049.054.167.156.155.174-.114.177-.054.527-.428.478zM17.313 37.575l.57.851-.098.066c-.189-.279-.378-.561-.568-.84l.096-.077zM31.869 31.158l.102.076c.127-.145.245-.298.346-.467-.039.021-.078.05-.116.061l-.332.33zM8.549 13.722c.394.195.844-.044 1.04-.46.163-.346.373-.668.598-.981.022-.125.045-.25.08-.369.128-.436.482-.617.877-.399a5.55 5.55 0 011.166.888c.431.417.794.903 1.2 1.347.342.375.748.405 1.054.105.288-.284.283-.681-.055-1.031-.683-.705-1.274-1.465-1.341-2.484-.028-.43.004-.891.134-1.299.296-.93 1.189-1.231 1.982-.655.425.309.761.747 1.112 1.151.258-.27.339-.663.245-1.226-.143-.855.425-.782.987-.598.082-.559.365-.93.962-1.169a6.14 6.14 0 011.071-.321c.585-.12 1.166-.266 1.742-.44l-1.267-1.047c-.04.154-.082.303-.176.657-.226-.417-.362-.68-.508-.938-.167-.296-.312-.616-.519-.878-1.25.264-2.402.748-3.252 1.802-.061.076-.238.105-.348.085-.095-.016-.185-.015-.278-.026.039.031.085.06.122.093.03.027-.12.379-.2.384-.256.017-.52-.057-.821-.103l.085-.402c-1.649.086-2.958 1.058-3.534 2.757-.151.442-.323.65-.826.757-1.43.308-2.107 1.377-2.374 2.724a7.274 7.274 0 00-.108.923c.241-.491.585-.902.898-.97l-.902 1.998c.006.125.005.25.017.375.192-.295.798-.417 1.137-.25z"/><path d="M22.9 2.993l-.325-.141c-.155.269-.219.728-.699.435l.228-.791a7.83 7.83 0 01-.737.373.77.77 0 00-.151.273c-.07.258.174.601.294.95-.468.371-.459-.427-.914-.428.099.458.088.971.318 1.329.183.284.489.487.788.696.145-.048.29-.082.434-.137V3.569l.345-.008c0 .237-.053.489.013.706.094.307.211.658.434.865.014.014.026.037.04.053.03-.016.062-.026.092-.042l-.028.125c.375.54.567 1.877.214 2.276a.466.466 0 01-.32.142c-.085-.005-.207-.109-.241-.198l-.041-.111a8.717 8.717 0 00-.012 1.371c.059.213.202.369.631.233l-.578.306c.02.142.033.284.058.425.077.44.377.668.785.609.391-.056.649-.405.558-.824-.314-1.449.213-2.571 1.33-3.456.882-.699 1.791-1.367 2.948-1.538.958-.142 1.534.333 1.533 1.305-.001.461-.116.923-.184 1.383-.021.146-.066.288-.085.433-.058.408.159.732.533.812.347.073.67-.139.79-.515.028-.091.054-.183.08-.275a9.075 9.075 0 01-1.191-.131c.411 0 .821.008 1.232.011.023-.072.045-.145.076-.212.476-1.039 1.554-1.282 2.351-.467.146.15.268.329.395.501.231-.028.469-.057.687-.081a3076.59 3076.59 0 01-.639-3.352 4.627 4.627 0 00-1.749-.288c-.1.001-.24-.095-.3-.186-.882-1.339-2.163-1.833-3.696-1.665-.73.08-1.441.33-2.183.507-.022-.078-.053-.205-.094-.33-.313-.962-1.472-1.329-2.196-.632-.017.015-.035.026-.051.042l-.24.657c-.968-.06-.196.692-.533.973z"/><path d="M37.321 13.829c-.116-.188-.125-.307-.003-.494a4.2 4.2 0 00.681-2.393c-.017-1.192-.313-2.293-.782-3.332l-1.748.138.49.88c-.662-.208-1.075-.347-1.488-.468.08.122.156.241.242.362-.448.19-.806.301-1.123.483a56.143 56.143 0 00-2.568 1.545c-.448.29-.51.724-.232 1.061.256.312.666.32 1.066.011a11.219 11.219 0 013.185-1.733c.526.926.204 2.042-.699 2.483-.517.253-.786.675-.78 1.251.008.594.307 1.001.844 1.252.202.095.389.224.584.337l-.058.153c-.905-.122-1.812-.244-2.719-.368-.131-.018-.262-.051-.394-.068-.417-.055-.744.163-.809.531-.066.388.131.718.551.794.801.146 1.609.25 2.415.372l.198.027c-.771.827-.768 1.094-.375 2.16.277.755.398 1.568.584 2.357.049.207-.051.307-.254.367-.985.295-1.932.217-2.831-.28-.468-.259-.915-.552-1.371-.832-.435-.266-.823-.216-1.055.141-.228.352-.113.739.315 1.014.348.225.701.44 1.057.652 1.57.934 1.678 3.008.209 4.085-.107.079-.221.147-.313.21-.708-.537-1.396-1.061-2.087-1.58a2.504 2.504 0 00-.407-.256.674.674 0 00-.869.229c.613.452 1.016 1.037 1.289 1.712a10.393 10.393 0 011.754 1.735c-.055-.459-.027-.872.139-1.121l1.385 3.848c-.58-.253-1.074-1.064-1.343-1.9-.021.045-.039.091-.067.133-.105.16-.381.273-.587.285-.285.018-.581-.068-.866-.129-.496-.105-.99-.221-1.482-.342a4.39 4.39 0 01-1.834-.945 13.829 13.829 0 00-1.168-.912c-.354-.244-.731-.162-.955.152-.232.326-.154.707.199.979.256.195.511.391.767.582.412.307.595.695.586 1.145h2.347c-1.023.586-1.823.691-2.388.313-.007.035-.005.068-.015.105-.166.648-.599 1.052-1.225 1.217.303.139.604.289.858.495.104.085.017.409.017.645-.45-.22-.774-.36-1.08-.533-.135-.077-.33-.231-.32-.334a.5.5 0 01.111-.214c-1.379.094-2.773-1.07-2.874-2.511-.024-.358.004-.721.019-1.081.015-.433-.203-.733-.579-.777-.388-.047-.712.17-.765.593-.061.5-.056 1.01-.081 1.571-1.03-.095-1.844.375-2.471 1.098-.017.018-.035.033-.051.052.194.29.388.581.583.87-.089.061-.179.121-.269.18l-.547-.807c-.838.813-1.847 1.177-3.029 1.229-.907.04-1.813.134-2.719.2-.046.004-.094-.01-.227-.023.502-.516.933-1.004 1.412-1.443.996-.913 1.959-1.866 3.047-2.67-.209-.121-.344-.164-.357-.227-.079-.397-.188-.766-.399-1.043a31.308 31.308 0 01-1.953 1.783c-2.34 1.963-4.331 4.287-6.387 6.536-.174.19-.299.259-.528.104-.253-.169-.529-.305-.829-.475.961-.877 1.891-1.732 2.829-2.58 1.498-1.354 2.973-2.734 4.508-4.046a23.567 23.567 0 001.803-1.723 1.6 1.6 0 00-.389-.089c.031-.288-.01-.615.119-.85.088-.159.414-.189.688-.297.1.114.215.247.332.379l.009.01a24.575 24.575 0 003.753-5.962c.732-1.631 1.487-3.258 2.329-4.834.576-1.079 1.311-2.075 1.997-3.091.296-.439.315-.838-.021-1.098-.317-.246-.729-.155-1.043.229-1.502 1.84-2.532 3.953-3.525 6.087-.394.848-.792 1.693-1.189 2.54-.056.116-.122.227-.216.4-.233-1.224-.64-2.301-1.307-3.272-.083-.121-.166-.244-.259-.357-.274-.337-.682-.41-.989-.186-.32.235-.365.625-.113.995.112.167.238.324.343.494.703 1.141 1.12 2.366 1.02 3.723-.077 1.036-.51 1.948-1.186 2.708a45.823 45.823 0 01-2.756 2.854c-1.916 1.805-3.874 3.566-5.817 5.348-.175-.107-.328-.211-.49-.299-.313-.173-.421-.436-.353-.774.073-.358.326-.378.639-.361.952.05 1.629-.755 1.431-1.672-.086-.399.011-.51.428-.481.146.008.295.039.438.022.827-.097 1.362-.86 1.183-1.677-.02-.09-.036-.181-.057-.287.333-.033.65-.07.969-.092.73-.053 1.219-.401 1.391-1.005.176-.62-.042-1.147-.65-1.578-1.014-.718-1.142-2.06-.275-2.881.691-.657 1.896-.58 2.499.159.288.354.657.422.981.184.301-.223.363-.605.141-.966a4.455 4.455 0 00-.378-.518c-1.713-2.034-2.433-4.422-2.558-7.017-.115.204-.286.368-.606.664-.497.461-1.491.78-1.838.588l-.234.003c.076.583.183 1.165.322 1.742.025.104.061.206.088.31l.608-.371c.152.15.238.352.272.575l1.761.113-.041.375c-.582.039-1.175.173-1.73-.02a1.677 1.677 0 01-.165.458l-.425-.151c.122.385.248.77.366 1.158-2.057 1.356-2.833 3.206-2.094 5.648-.83.065-1.169.639-1.406 1.313-.053.15-.116.308-.12.464-.006.337-.198.481-.485.587-.602.221-.958.635-1.038 1.298-.023.192-.169.451-.332.532-.923.452-1.437 1.221-1.727 2.156-.283.914-.101 1.794.345 2.651l-.963.735c-1.004.764-.933 1.871.166 2.49 1.07.604 2.146 1.199 3.219 1.795 1.009.561 1.469.537 2.356-.215a8.084 8.084 0 001.07-1.133c.816-1.02 1.819-1.67 3.155-1.751a92.852 92.852 0 002.837-.219c1.621-.147 3.077-.67 4.194-1.919.179-.199.334-.42.5-.631l.179.003c.081.124.135.286.247.367.625.452 1.219.978 1.905 1.308 2.676 1.283 5.321.148 6.37-1.912.044-.086.255-.146.372-.127.474.08.936.22 1.41.293 1.263.199 2.363-.166 3.11-.893a8.661 8.661 0 01-.309-.617c-.222-.505.346-1.371.921-1.557a.96.96 0 00.393-.24 4.291 4.291 0 00-.039-.735.677.677 0 01.156-.474c.041-.045.075-.094.114-.139-.251-.739-.386-1.516-.462-2.3.588.853.84 1.229.941 1.645.24-.388.428-.802.526-1.259.097-.452.11-.922.163-1.413.078-.019.185-.032.281-.072.649-.269 1.314-.51 1.941-.823.459-.231.659-.672.688-1.193.063-1.185-.028-2.352-.405-3.482-.077-.23-.008-.357.146-.517 1.2-1.249 1.379-2.927.464-4.413zM36.016 5.54a5.059 5.059 0 00-1.168-1.144c.011.199.037.389.125.546.162.29.614.42 1.043.598zM34.853 6.136c.577.386 1.094.942 1.708 1.085.159.038.324.051.493.05a13.36 13.36 0 00-.783-1.377c-.017-.026-.036-.049-.054-.075-.206.557-.92-.111-1.364.317z"/><path d="M26.354 14.139c1.049-.661 1.922-1.513 2.691-2.466.037-.542.277-.893.731-1.041a.648.648 0 00-.239-.767c-.318-.23-.721-.174-.979.202-.992 1.453-2.313 2.54-3.766 3.497-2.041 1.345-3.647 3.124-5.002 5.14-.507.753-1.026 1.502-1.487 2.285a30.105 30.105 0 01-1.856 2.748c.192-.025.428.07.718.271-1.012.777-1.6 1.574-1.15 2.82a.556.556 0 01.013.363c.261-.214.506-.455.749-.688.909-.869 1.915-1.523 3.023-1.953-.061-.205-.082-.471-.043-.822l.662.61a8.88 8.88 0 011.814-.35c.17-.015.355-.034.503-.109.315-.159.411-.444.331-.78a.648.648 0 00-.773-.484c-.967.182-1.927.407-2.888.62-.113.024-.218.081-.384.044.428-.346.837-.717 1.287-1.031 1.196-.838 2.566-1.299 3.938-1.752 1.482-.49 2.97-.968 4.453-1.454.51-.167.719-.52.564-.929-.148-.39-.49-.541-.96-.377-2.058.716-4.176 1.269-6.201 2.076.012.284-.019.634-.103 1.071-.119-.293-.236-.587-.361-.877-.467.197-.93.404-1.383.637-.008.004-.023-.005-.074-.018.052-.091.096-.177.146-.259.277-.451.572-.884.876-1.308a3.766 3.766 0 00-.052-.111c.051-.009.093-.007.14-.01 1.38-1.895 3.034-3.522 5.062-4.798zM14.042 27.236l.336 1.057a11.86 11.86 0 011.036-.673.895.895 0 01-.325-.032c-.304-.092-.602-.202-1.047-.352zM18.505 10.932c.299-.299.277-.694-.095-1.056a3.43 3.43 0 01-.291-.331l-.534 1.4c.309.242.668.24.92-.013zM17.674 8.664c.037.616.112.707.363.771a2.382 2.382 0 01-.363-.771zM15.951 24.375a29.63 29.63 0 01-1.599 1.854c.451.19.859-.029 1.149-.674.173-.386.338-.776.45-1.18zM21.84 6.145l.164-.233a5.382 5.382 0 00-.303-.223c-.1.033-.199.064-.299.094l.438.362zM18.692 3.107c-.41-.357-.786-.753-1.177-1.132.397.564.909 1.013 1.361 1.516.022.025.036.059.057.085.09-.019.18-.039.27-.055-.171-.134-.344-.269-.511-.414zM6.866 9.071c-.165.156-.228.419-.337.635l.624-.013.076 1.553c.556-.856.875-1.729.496-2.755-.297.194-.614.349-.859.58zM8.464 16.985c.094.056.19.097.288.13.034-.164.032-.319.009-.468l-.26-.017-.037.355zM6.967 16.999l1.195.423a20.983 20.983 0 01-.281-.979l-.914.556zM5.897 18.334c.574-.12 1.148-.24 1.722-.358l-.02-.197c-.365-.102-.725-.262-1.095-.294-.578-.048-.82.313-.607.849zM15.064 3.727c.431.631.927.024 1.44.14-.506-.614-.984-.642-1.44-.14zM5.476 11.585l-1.324-1.283c-.071.615.383 1.044 1.324 1.283zM2.565 10.558c-.053.045-.031.211-.002.313.066.228.158.448.273.767.111-.114.307-.23.295-.321-.034-.275-.138-.544-.245-.803-.012-.03-.247-.018-.321.044zM17.577 0l-.775.161.826.666L17.577 0z"/></g></symbol><symbol viewBox="0 0 40.189 43.416" id="sauce" xmlns="http://www.w3.org/2000/svg"><g fill="#E35028"><path d="M15.407 6.22c.04.091.187.22.244.201.109-.033.259-.151.271-.249.099-.81-.205-1.502-.67-2.23-.123.478-.505.797-.236 1.281.17.308.248.67.391.997zM23.878 9.649l.39-1.024c-.261-.056-.261-.056-.287-.978-.316-.105-.64-.151-.56.332.096.571-.117.839-.697.927l.963.434.191.309zM27.277 16.735l1.319.265-.196-.428.565-.324c-1.171-.367-1.43-.281-1.688.487zM26.941 7.63a.253.253 0 00.18-.079c.217-.244.07-1.121-.178-1.352-.125-.116-.189-.313-.242-.484-.037-.122-.008-.264-.008-.396l-.193.005v1.349c.084.231.189.542.308.846.018.049.086.108.133.111zM27.13 8.355c-.517.164-.307-.422-.432-.479-.27.35-.506.659-.743.968.015.036.03.073.046.107.376-.197.752-.396 1.129-.596zM24.064 11.452l-.066-.205c-.462.135-.924.268-1.385.401l.085.254c.456-.15.911-.299 1.366-.45zM19.971 12.924l.023-.21-1.132-.072-.021.198c.355.21.747.109 1.13.084zM9.639 23.044l.011.153.811.536c-.031-.32-.009-.66-.074-.678-.234-.062-.497-.016-.748-.011zM11.06 23.17c.355.21.748.109 1.13.084l.023-.21-1.132-.072-.021.198zM.862 29.643c-.329.14-.586.449-.862.674.323.133.646.355.981.376.277.018.627-.144.829-.344.11-.109.047-.631-.058-.673-.264-.107-.636-.143-.89-.033zM3.274 34.769l1.881 2.024.201-.199-1.811-2.083-.271.258zM13.015 43.416l1.949-.178-1.129-1.029c-.215.315-.415.609-.82 1.207zM15.245 22.124l1.039-.342-.067-.205c-.338.099-.677.196-1.015.294l-.695-3.999a1.494 1.494 0 00-.598-.956c.22-.03.465 0 .746.124.057-.205.196-.429.142-.584-.068-.193-.282-.347-.457-.49-.121-.099-.279-.149-.421-.223l-.06.129.45.548c-.352.435-.91-.16-1.158.22a1.422 1.422 0 00-.379.012 1.5 1.5 0 00-1.221 1.734l2.526 14.533a1.5 1.5 0 002.956-.513l-1.788-10.282zM31.696 34.834c-.143.109.253 1.356.429 1.363.635.028 1.281-.254 2.143-.475l-.492-1.925c-.708.327-1.477.573-2.08 1.037z"/><path d="M39.365 6.225c.095-.47.205-.937.316-1.403.183-.768.372-1.561.488-2.359.071-.479-.048-1.523-.526-1.811l-.085-.043c-.586-.234-1.461.01-1.936.368-.845.64-1.654 1.345-2.438 2.026-.411.358-.822.717-1.239 1.066a1.778 1.778 0 01-.38.258c-1.369-.553-1.945.453-2.385 1.221l-.186.332c-.252.451-.49.877-.788 1.254-.143.182-.432.346-.618.355-1.404.061-2.48.693-3.195 1.881l-3.558 5.909c-.472.783-.942 1.566-1.413 2.35-.078.024-.145.052-.172.1a.647.647 0 00-.056.279c-.572.951-1.144 1.901-1.715 2.853l.732 4.373 1.84-3.059.908-1.51.335.493.15-.101-.38-.567.361-.599 1.406-2.338.344-.57c.069.414.385.465.709.505a9.86 9.86 0 01.104-.115l-.674-.62 1.084-1.798.028.069c.011-.057.009-.092.017-.144.752-1.251 1.504-2.502 2.26-3.751.52-.859.709-.908 1.559-.402l.406.243.957-1.977.402 2.79.641.383c.781.47 1.561.941 2.339 1.416.827.505.874.71.355 1.572-.958 1.595-1.919 3.188-2.878 4.781l-.025 1.419a4.846 4.846 0 01-.611-.361c-2.326 3.866-4.651 7.733-6.98 11.599-.55.912-.733.959-1.637.421-.625-.373-1.248-.752-1.872-1.127l-.799-4.608.256.052-.196-.428c.191-.11.339-.196.565-.324a4.749 4.749 0 00-.78-.192.532.532 0 00-.007-.039l-.526-3.025c-.162-.93-.319-1.86-.477-2.791-.095-.564-.197-1.142-.294-1.713l.25-.132c-.134.043-.218.033-.273-.003-.074-.436-.147-.867-.224-1.305.054.151.112.311.174.471.019.05.087.108.134.111a.255.255 0 00.18-.079c.216-.244.069-1.121-.178-1.352-.125-.116-.19-.313-.243-.484-.037-.122-.007-.264-.007-.396l-.194.006v.964a145.764 145.764 0 00-.63-3.316l.153.102c-.031-.32-.009-.66-.074-.678-.067-.018-.14-.015-.211-.018-.204-.711-.646-1.623-1.282-2.042.033-.115.062-.232.119-.322.019-.028-.163-.186-.238-.269l-.178.426c-1.028-.455-1.14-1.187-1.294-2.249l-.038-.284c-.042-.35-.087-.709-.223-1.053-.131-.331-.49-1.101-.995-1.1-.65.002-.853-.354-1.154-.984a6.844 6.844 0 00-.216-.428 43.903 43.903 0 01-.679-1.268c-.364-.699-.742-1.424-1.176-2.104C10.344.624 9.57-.087 9.02.009l-.093.023c-.595.207-1.098.963-1.222 1.546-.219 1.036-.37 2.099-.515 3.127-.076.54-.152 1.08-.238 1.618a1.828 1.828 0 01-.119.444C5.437 7.244 5.66 8.384 5.83 9.251l.076.373c.104.506.203.983.226 1.463.011.23-.1.545-.235.674-1.022.966-1.42 2.148-1.183 3.515l.003.018 2.748 3.615-.803 1.081c-.4-.366-.771-.771-1.205-1.091-.052-.038-.087-.086-.136-.126l.573 3.299.749 4.297c-.029-.023-.058-.05-.085-.072-.121-.099-.279-.149-.421-.223l-.06.129.45.548c-.395.487-1.053-.33-1.237.4-.101.399-.769.645-.183 1.267l-.604-.232-.07.145c.18.078.366.147.537.242a.566.566 0 01.227.228c.019.039-.08.135-.125.206-.043.07-.132.146-.122.208.054.324-.13.381-.39.403-.193.015-.383.071-.574.11l.027.141h1.503c-.025-.233-.051-.413-.062-.595a57.04 57.04 0 01-.056-1.168c-.005-.125-.042-.279.014-.37.307-.497.781-.635 1.402-.382.5 2.873.997 5.746 1.501 8.619.393 2.233 2.115 3.433 4.387 3.057a362.73 362.73 0 002.571-.438c.995-.173 1.989-.35 2.982-.525l.124-.021c1.011-.18 1.79-.576 2.345-1.14l-.143-.751.371-.174c.066.13.131.261.195.392.4-.638.592-1.422.531-2.343l.262 1.564a4.9 4.9 0 001.363.528c.042-.133.078-.253.134-.403.073.165.144.319.208.466 1.438.188 2.718-.494 3.649-2.036a3114.77 3114.77 0 003.518-5.84c-.247-.19-.5-.371-.742-.567-.2-.163-.094-.707-.13-1.075.643-.031 1.293-.123 1.928-.112l.708-1.176c.486-.81.978-1.616 1.468-2.423 1.299-2.135 2.643-4.344 3.889-6.563.4-.715.845-2.088.422-2.936-.523-1.052-.119-1.683.471-2.604l.158-.24c.195-.291.398-.593.521-.941.117-.336.35-1.152-.033-1.482-.492-.424-.412-.826-.227-1.5a5.89 5.89 0 00.12-.465zM22.253 21.327c-.174-.167-.514-.361-.49-.495.056-.332.277-.637.547-1.188.049.071.097.132.144.193a.915.915 0 01-.036.029l.395.582c-.12.317-.364.589-.56.879zM12.177 8.852l.221 1.271-3.321.577-.221-1.271 3.321-.577zM9.399 2.726l2.117 3.242-3.015.523.898-3.765zm8.407 32.489c-1.782.317-3.565.628-5.352.931-1.03.174-1.17.07-1.358-1.002-.307-1.752-.611-3.505-.915-5.257-.208.055-.436.114-.708.188.188-.518.344-.966.499-1.39l-.155-.89-.456-2.625-.468-2.689-.197-1.135c.2-.144.189-.476.316-.673.019-.028-.163-.186-.238-.269a42.63 42.63 0 00-.17.407c-.237-1.359-.472-2.719-.707-4.078.105-.042.232-.143.243-.232.092-.755-.173-1.408-.585-2.084.033-.406.286-.528.973-.651a489.182 489.182 0 015.456-.947c.956-.161 1.125-.037 1.299.955.241 1.384.48 2.768.722 4.152-.237-.047-.427.002-.363.383.096.571-.117.839-.697.927l.962.434.191.31.181-.476 1.329 7.648a58.381 58.381 0 01-.22-.203c-.055.5.098.694.321.784.353 2.031.708 4.062 1.059 6.092.18 1.049.073 1.205-.962 1.39zm17.768-24.706L32.685 8.77l.666-1.105 2.889 1.739-.666 1.105zm2.053-3.719l-2.622-1.578 3.146-2.258-.524 3.836z"/><path d="M22.427 30.894a1.499 1.499 0 002.058-.512l7.606-12.637a1.499 1.499 0 00-.512-2.059 1.499 1.499 0 00-2.058.512l-7.606 12.637a1.5 1.5 0 00.512 2.059z"/></g></symbol><symbol viewBox="0 0 0 0" id="sprite" xmlns="http://www.w3.org/2000/svg"/><symbol viewBox="0 0 37.453 31.21" id="twitter" xmlns="http://www.w3.org/2000/svg"><path fill="#FFF" d="M36.421.577a15.112 15.112 0 01-4.884 1.909A7.575 7.575 0 0025.93 0c-4.24 0-7.682 3.528-7.682 7.879 0 .618.066 1.217.198 1.794-6.385-.329-12.047-3.462-15.839-8.235a8.02 8.02 0 00-1.04 3.966c0 2.731 1.356 5.144 3.418 6.557a7.547 7.547 0 01-3.481-.981v.096c0 3.819 2.648 7.004 6.167 7.725a7.292 7.292 0 01-2.025.277c-.495 0-.979-.047-1.447-.139.979 3.129 3.815 5.408 7.179 5.469a15.172 15.172 0 01-9.544 3.375c-.619 0-1.232-.037-1.833-.109a21.388 21.388 0 0011.778 3.537c14.136 0 21.863-12.004 21.863-22.417 0-.343-.006-.685-.021-1.021a15.749 15.749 0 003.832-4.078 15.04 15.04 0 01-4.412 1.24 7.861 7.861 0 003.38-4.358"/></symbol><symbol viewBox="0 0 126 72" id="vk" xmlns="http://www.w3.org/2000/svg"><defs><path id="ha" d="M0 0h126v72H0z"/></defs><clipPath id="hb"><use xlink:href="#ha" overflow="visible"/></clipPath><path fill="#fff" clip-path="url(#hb)" d="M124.523 64.503a8.35 8.35 0 00-.426-.816c-2.172-3.91-6.324-8.711-12.449-14.401l-.129-.134-.066-.063-.066-.066h-.063c-2.781-2.651-4.543-4.434-5.281-5.344-1.348-1.738-1.652-3.5-.914-5.281.523-1.348 2.477-4.19 5.867-8.538a447.262 447.262 0 004.234-5.539c7.52-9.996 10.777-16.383 9.777-19.164l-.387-.649c-.262-.39-.934-.75-2.02-1.074-1.086-.327-2.477-.383-4.172-.163l-18.772.127c-.301-.105-.738-.099-1.301.034l-.852.195-.323.166-.258.195c-.219.129-.457.354-.719.683a4.443 4.443 0 00-.648 1.142c-2.047 5.258-4.367 10.145-6.977 14.663-1.609 2.695-3.086 5.031-4.434 7.009-1.348 1.976-2.477 3.434-3.387 4.366-.914.935-1.738 1.685-2.477 2.246-.742.567-1.305.806-1.695.72-.391-.091-.762-.177-1.109-.263a4.288 4.288 0 01-1.465-1.597c-.371-.672-.621-1.52-.75-2.543a28.65 28.65 0 01-.23-2.637c-.02-.738-.008-1.785.035-3.129.043-1.349.066-2.263.066-2.738 0-1.653.031-3.446.094-5.379.066-1.935.121-3.465.164-4.594.043-1.13.066-2.324.066-3.587 0-1.258-.078-2.245-.23-2.965a9.987 9.987 0 00-.684-2.086c-.305-.672-.75-1.194-1.336-1.562-.586-.371-1.313-.664-2.18-.883-2.305-.521-5.238-.802-8.8-.849-8.082-.086-13.274.438-15.579 1.567-.914.476-1.738 1.129-2.476 1.953-.781.957-.891 1.479-.328 1.565 2.609.392 4.453 1.325 5.543 2.802l.39.784c.305.563.61 1.563.911 2.996.304 1.435.5 3.021.585 4.758.219 3.173.219 5.888 0 8.149-.214 2.257-.421 4.019-.617 5.277-.195 1.262-.488 2.28-.879 3.065-.39.782-.652 1.258-.785 1.435-.129.172-.238.28-.324.323a4.815 4.815 0 01-1.762.328c-.605 0-1.344-.304-2.215-.914-.867-.608-1.769-1.444-2.703-2.512-.933-1.062-1.988-2.55-3.164-4.464-1.172-1.911-2.386-4.168-3.648-6.778l-1.043-1.89c-.653-1.215-1.543-2.985-2.672-5.313a100.975 100.975 0 01-2.996-6.745c-.348-.91-.871-1.605-1.567-2.087l-.324-.194c-.219-.172-.566-.356-1.043-.556a7.006 7.006 0 00-1.5-.422l-17.858.133c-1.824 0-3.063.414-3.715 1.238l-.262.392C.066 5.113 0 5.46 0 5.938c0 .48.129 1.065.391 1.762a215.077 215.077 0 008.507 17.725c3.063 5.696 5.723 10.278 7.981 13.754a161.747 161.747 0 006.91 9.84c2.348 3.086 3.902 5.063 4.66 5.935a43.02 43.02 0 001.793 1.953l1.629 1.565c1.043 1.043 2.574 2.293 4.598 3.746 2.02 1.457 4.258 2.891 6.711 4.305 2.457 1.41 5.312 2.563 8.574 3.453 3.258.892 6.43 1.25 9.516 1.074h7.496c1.52-.129 2.672-.609 3.453-1.433l.258-.324c.176-.262.34-.665.488-1.208.152-.542.23-1.14.23-1.792-.043-1.868.098-3.551.422-5.051.324-1.496.695-2.625 1.109-3.388.414-.762.879-1.401 1.402-1.922.52-.522.891-.836 1.109-.944.215-.11.387-.185.52-.231 1.043-.347 2.27-.007 3.684 1.012 1.41 1.024 2.734 2.281 3.977 3.781 1.238 1.5 2.727 3.184 4.461 5.051 1.742 1.867 3.262 3.258 4.563 4.172l1.305.781c.871.524 2 1 3.391 1.435 1.391.437 2.605.547 3.648.327l16.688-.262c1.648 0 2.934-.272 3.844-.815.914-.544 1.453-1.142 1.629-1.789.176-.653.184-1.392.035-2.22-.158-.824-.31-1.402-.459-1.727zm0 0"/></symbol><symbol id="volume" viewBox="0 0 300 300" xml:space="preserve" xmlns="http://www.w3.org/2000/svg"><style>.ist0{fill:#626262}</style><path class="ist0" d="M178.5 59.2L112.1 112c-4.8-2.6-10.3-4-16.1-4-18.8 0-34 15.2-34 34s15.2 34 34 34c5.8 0 11.3-1.5 16.1-4l66.4 52.9c8.7 6.9 21.5.7 21.5-10.4v-145c0-11.1-12.8-17.3-21.5-10.3z"/></symbol></svg>